<svg xmlns="http://www.w3.org/2000/svg" width="50" height="50" viewBox="0 0 50 50"><g fill="#dbdde2"><path d="M19.4 30.5c0-2 .1-4 .4-5.9.5-3.2 3.7-6.1 7-6.5 3-.3 6-.5 8.8-.5 1.5 0 3 0 4.5.1-.1-1.5-.2-3.1-.5-4.6-.5-3.3-4.2-6.4-7.4-6.8-4.1-.4-8.1-.6-12.2-.6-4 0-8.1.2-12.1.6-3.1.5-6.8 3.7-7.4 7-.3 2.5-.5 5.2-.5 7.8 0 2.6.2 5.2.5 7.7.5 3.3 4.5 6.4 7.7 6.8 1.2.1 1.7.2 3.7.3v7.4c0 .6.1 1.1.6 1.4.2 0 .2.1.5.1.4 0 .7-.1.9-.4l6.4-6.2c-.3-.5-.5-1.1-.6-1.7-.2-2-.3-3.9-.3-6zM21.9 36.6c.6 2.1 3 3.9 5.1 4.2 2.3.2 4.6.4 6.9.4l6.1 5.9c.2.2.4.3.7.3.2 0 .4 0 .5-.1.4-.2.7-.5.7-1v-5.2c1-.1 1.6-.1 2.4-.2 2.3-.3 4.9-2.5 5.3-4.8.3-1.8.4-3.6.4-5.5s-.1-3.8-.4-5.6c-.4-2.3-3-4.6-5.3-4.8-1.3-.1-2.8-.2-4.2-.3h-.2c-1-.1-2.9-.1-4.5-.1-2.9 0-5.7.2-8.5.4-2.3.3-4.9 2.5-5.2 4.8-.3 1.8-.4 3.7-.4 5.6s.1 3.7.4 5.5c.1.1.2.3.2.5"/></g></svg>